<svg id="visual" viewBox="0 0 1902 1080" width="1902" height="1080" xmlns="http://www.w3.org/2000/svg" xmlns:xlink="http://www.w3.org/1999/xlink" version="1.1"><rect x="0" y="0" width="1902" height="1080" fill="#ffffff"></rect><path d="M0 492L52.8 479.2C105.7 466.3 211.3 440.7 317 428C422.7 415.3 528.3 415.7 634 453.3C739.7 491 845.3 566 951 595.3C1056.7 624.7 1162.3 608.3 1268 593.7C1373.7 579 1479.3 566 1585 580.5C1690.7 595 1796.3 637 1849.2 658L1902 679L1902 1081L1849.2 1081C1796.3 1081 1690.7 1081 1585 1081C1479.3 1081 1373.7 1081 1268 1081C1162.3 1081 1056.7 1081 951 1081C845.3 1081 739.7 1081 634 1081C528.3 1081 422.7 1081 317 1081C211.3 1081 105.7 1081 52.8 1081L0 1081Z" fill="#fa7268"></path><path d="M0 667L52.8 675C105.7 683 211.3 699 317 700.5C422.7 702 528.3 689 634 680.7C739.7 672.3 845.3 668.7 951 655.3C1056.7 642 1162.3 619 1268 611.2C1373.7 603.3 1479.3 610.7 1585 633.2C1690.7 655.7 1796.3 693.3 1849.2 712.2L1902 731L1902 1081L1849.2 1081C1796.3 1081 1690.7 1081 1585 1081C1479.3 1081 1373.7 1081 1268 1081C1162.3 1081 1056.7 1081 951 1081C845.3 1081 739.7 1081 634 1081C528.3 1081 422.7 1081 317 1081C211.3 1081 105.7 1081 52.8 1081L0 1081Z" fill="#ef5f67"></path><path d="M0 679L52.8 687.5C105.7 696 211.3 713 317 729.2C422.7 745.3 528.3 760.7 634 781.3C739.7 802 845.3 828 951 831.3C1056.7 834.7 1162.3 815.3 1268 799.5C1373.7 783.7 1479.3 771.3 1585 748.2C1690.7 725 1796.3 691 1849.2 674L1902 657L1902 1081L1849.2 1081C1796.3 1081 1690.7 1081 1585 1081C1479.3 1081 1373.7 1081 1268 1081C1162.3 1081 1056.7 1081 951 1081C845.3 1081 739.7 1081 634 1081C528.3 1081 422.7 1081 317 1081C211.3 1081 105.7 1081 52.8 1081L0 1081Z" fill="#e34c67"></path><path d="M0 786L52.8 794.2C105.7 802.3 211.3 818.7 317 824.8C422.7 831 528.3 827 634 837.5C739.7 848 845.3 873 951 878.7C1056.7 884.3 1162.3 870.7 1268 877.3C1373.7 884 1479.3 911 1585 903.2C1690.7 895.3 1796.3 852.7 1849.2 831.3L1902 810L1902 1081L1849.2 1081C1796.3 1081 1690.7 1081 1585 1081C1479.3 1081 1373.7 1081 1268 1081C1162.3 1081 1056.7 1081 951 1081C845.3 1081 739.7 1081 634 1081C528.3 1081 422.7 1081 317 1081C211.3 1081 105.7 1081 52.8 1081L0 1081Z" fill="#d53867"></path><path d="M0 970L52.8 970.3C105.7 970.7 211.3 971.3 317 974.2C422.7 977 528.3 982 634 975.2C739.7 968.3 845.3 949.7 951 932.7C1056.7 915.7 1162.3 900.3 1268 905.2C1373.7 910 1479.3 935 1585 943.2C1690.7 951.3 1796.3 942.7 1849.2 938.3L1902 934L1902 1081L1849.2 1081C1796.3 1081 1690.7 1081 1585 1081C1479.3 1081 1373.7 1081 1268 1081C1162.3 1081 1056.7 1081 951 1081C845.3 1081 739.7 1081 634 1081C528.3 1081 422.7 1081 317 1081C211.3 1081 105.7 1081 52.8 1081L0 1081Z" fill="#c62368"></path></svg>